<?xml version="1.0" encoding="UTF-8"?>
<svg viewBox="0 0 1044 115" version="1.1" xmlns="http://www.w3.org/2000/svg" xmlns:xlink="http://www.w3.org/1999/xlink">

    <title>CHUBERANDSONS</title>
    <g id="Page-1" stroke="none" stroke-width="1" fill="none" fill-rule="evenodd">
        <g id="Artboard" transform="translate(-154.000000, -634.000000)" fill="#FFFFFF">
            <path d="M248.4,668.8 L230.1,673.8 C230.1,673.8 233.1,647.2 202.2,647.2 C182.8,647.2 172.8,658.8 172.8,675.1 C172.8,692.3 184.6,703 202.2,703 C232.7,703 232.3,680.2 232.3,680.2 L250.6,684.9 C250.6,684.9 246,715.3 202.2,715.3 C173.4,715.3 154.3,698.4 154.3,675.1 C154.3,651.7 173,634.9 202.1,634.9 C248.7,634.9 248.4,668.8 248.4,668.8 Z M329.4,714 L329.4,680.7 L282.4,680.7 L282.4,714 L264.6,714 L264.6,636.3 L282.4,636.3 L282.4,669.8 L329.4,669.8 L329.4,636.3 L347.2,636.3 L347.2,714 L329.4,714 Z M428.6,636.3 L446.4,636.3 L446.4,681.6 C446.4,704.1 432.8,715.3 405.8,715.3 C378.8,715.3 365.2,704.1 365.2,681.6 L365.2,636.3 L383,636.3 L383,681.6 C383,699.2 391.6,703 405.8,703 C420,703 428.6,699.2 428.6,681.6 L428.6,636.3 Z M501,636.3 C527.6,636.3 539.6,643.2 539.6,658 C539.6,671 526.7,673.5 525.4,673.7 C526.8,673.9 541.6,676.5 541.6,691.3 C541.6,706.1 529.6,714 503,714 L464.4,714 L464.4,636.3 L501,636.3 Z M502,668.8 C513.4,668.8 521.1,666 521.1,658 C521.1,650 513.4,647.2 502,647.2 L482.2,647.2 L482.2,668.8 L502,668.8 Z M482.2,703 L504,703 C515.4,703 523.1,699.2 523.1,691.2 C523.1,683.4 515.8,679.4 504.9,679.4 L482.2,679.4 L482.2,703 Z M556.6,714 L556.6,636.3 L622.1,636.3 L622.1,647.2 L574.4,647.2 L574.4,669.8 L619.2,669.8 L619.2,680.7 L574.4,680.7 L574.4,703 L625.1,703 L625.1,714 L556.6,714 Z M638.1,636.3 L674.7,636.3 C701.3,636.3 713.3,643.7 713.3,658.5 C713.3,671 701.7,674.9 691.2,676.1 C699,677.1 702.9,680.8 704.7,685.4 C714.2,709.8 714.8,711.9 716.6,714 L697.2,714 C695.3,711.3 694.2,706.4 689.8,690.1 C687.9,683 682.7,680.7 666.9,680.7 L655.9,680.7 L655.9,714 L638.1,714 L638.1,636.3 Z M655.9,669.8 L675.7,669.8 C687.1,669.8 694.8,666.5 694.8,658.5 C694.8,650.5 687.1,647.2 675.7,647.2 L655.9,647.2 L655.9,669.8 Z M726.8,647.2 L726.8,636.3 L801.4,636.3 L801.4,648 L772.8,674.7 C781.5,684.5 788.9,694.3 794.9,703 L812.8,703 L812.8,714 L802.2,714 C809,724.8 812.7,732.1 812.7,732.1 L794.7,737 C794.7,737 791,727.6 783.1,714 L722.6,714 L722.6,702.3 L753.7,673.1 C745.9,664.3 737,655.4 726.8,647.2 Z M781.4,647.2 L743.3,647.2 C750.4,652.5 756.9,658.4 763,664.4 L781.4,647.2 Z M776.3,703 C772.4,697.1 768,690.6 762.8,684.1 L742.6,703 L776.3,703 Z M852.7,665.3 L874.1,669.6 C893.1,673.4 898.9,681.9 898.9,692.3 C898.9,707.4 882.8,715.3 861.9,715.3 C828.7,715.3 818.4,699.9 817.8,688.7 L836.1,684 C836.1,684 833.8,703 861.6,703 C873.4,703 880.6,699.6 880.6,693.7 C880.6,686.6 874.5,685.3 863.8,683 L844,678.8 C829,675.6 820.6,667.9 820.6,658.1 C820.6,646 832.2,634.9 856.5,634.9 C894.1,634.9 895.8,657.8 895.8,657.8 L877.5,662.8 C877.5,662.8 878.1,647.2 855.8,647.2 C845.2,647.2 839,651.1 839,656.2 C839,661.2 844.6,663.7 852.7,665.3 Z M907.9,675.1 C907.9,651.7 927.4,634.9 957.4,634.9 C987.4,634.9 1006.9,651.7 1006.9,675.1 C1006.9,698.5 987.4,715.3 957.4,715.3 C927.4,715.3 907.9,698.5 907.9,675.1 Z M926.4,675.1 C926.4,690.4 935.8,703 957.4,703 C979,703 988.4,690.4 988.4,675.1 C988.4,659.8 979,647.2 957.4,647.2 C935.8,647.2 926.4,659.8 926.4,675.1 Z M1104.6,636.3 L1104.6,714 L1080.3,714 L1039.7,653.3 L1039.7,714 L1021.9,714 L1021.9,636.3 L1046.2,636.3 L1086.8,697 L1086.8,636.3 L1104.6,636.3 Z M1151.5,665.3 L1172.9,669.6 C1191.9,673.4 1197.7,681.9 1197.7,692.3 C1197.7,707.4 1181.6,715.3 1160.7,715.3 C1127.5,715.3 1117.2,699.9 1116.6,688.7 L1134.9,684 C1134.9,684 1132.6,703 1160.4,703 C1172.2,703 1179.4,699.6 1179.4,693.7 C1179.4,686.6 1173.3,685.3 1162.6,683 L1142.8,678.8 C1127.8,675.6 1119.4,667.9 1119.4,658.1 C1119.4,646 1131,634.9 1155.3,634.9 C1192.9,634.9 1194.6,657.8 1194.6,657.8 L1176.3,662.8 C1176.3,662.8 1176.9,647.2 1154.6,647.2 C1144,647.2 1137.8,651.1 1137.8,656.2 C1137.8,661.2 1143.4,663.7 1151.5,665.3 Z" id="CHUBER&amp;SONS"></path>
        </g>
    </g>
</svg>
